<mxfile host="app.diagrams.net" modified="2024-01-02T08:59:30.308Z" agent="Mozilla/5.0 (Windows NT 10.0; Win64; x64) AppleWebKit/537.36 (KHTML, like Gecko) Chrome/120.0.0.0 Safari/537.36" etag="o3MjgBwMQu9rez_bIDuf" version="22.1.16" type="device">
  <diagram id="jbVRNizJcDCQ8yqokmnY" name="第 1 页">
    <mxGraphModel dx="2206" dy="1135" grid="1" gridSize="10" guides="1" tooltips="1" connect="1" arrows="1" fold="1" page="1" pageScale="1" pageWidth="2336" pageHeight="1654" math="0" shadow="0">
      <root>
        <mxCell id="0" />
        <mxCell id="1" parent="0" />
        <mxCell id="_HgupfXg40LZJNDoUt4P-286" value="" style="rounded=0;whiteSpace=wrap;html=1;" vertex="1" parent="1">
          <mxGeometry x="1140" y="103.75" width="800" height="1052.5" as="geometry" />
        </mxCell>
        <mxCell id="_HgupfXg40LZJNDoUt4P-287" value="&lt;font style=&quot;font-size: 23px;&quot;&gt;旅客名稱&lt;/font&gt;" style="rounded=1;whiteSpace=wrap;html=1;" vertex="1" parent="1">
          <mxGeometry x="1340" y="130" width="100" height="50" as="geometry" />
        </mxCell>
        <mxCell id="_HgupfXg40LZJNDoUt4P-288" value="&lt;font style=&quot;font-size: 23px;&quot;&gt;旅客&lt;/font&gt;" style="rounded=0;whiteSpace=wrap;html=1;" vertex="1" parent="1">
          <mxGeometry x="1500" y="125" width="90" height="65" as="geometry" />
        </mxCell>
        <mxCell id="_HgupfXg40LZJNDoUt4P-289" value="&lt;font style=&quot;font-size: 23px;&quot;&gt;訂票&lt;/font&gt;" style="rhombus;whiteSpace=wrap;html=1;" vertex="1" parent="1">
          <mxGeometry x="1430" y="350" width="100" height="70" as="geometry" />
        </mxCell>
        <mxCell id="_HgupfXg40LZJNDoUt4P-290" value="&lt;font style=&quot;font-size: 23px;&quot;&gt;退票&lt;/font&gt;" style="rhombus;whiteSpace=wrap;html=1;" vertex="1" parent="1">
          <mxGeometry x="1560" y="350" width="100" height="70" as="geometry" />
        </mxCell>
        <mxCell id="_HgupfXg40LZJNDoUt4P-291" value="&lt;font style=&quot;font-size: 23px;&quot;&gt;訂票號&lt;/font&gt;" style="rounded=1;whiteSpace=wrap;html=1;" vertex="1" parent="1">
          <mxGeometry x="1290" y="230" width="100" height="50" as="geometry" />
        </mxCell>
        <mxCell id="_HgupfXg40LZJNDoUt4P-292" value="&lt;font style=&quot;font-size: 23px;&quot;&gt;車次&lt;/font&gt;" style="rounded=1;whiteSpace=wrap;html=1;" vertex="1" parent="1">
          <mxGeometry x="1250" y="300" width="90" height="50" as="geometry" />
        </mxCell>
        <mxCell id="_HgupfXg40LZJNDoUt4P-293" value="&lt;font style=&quot;font-size: 23px;&quot;&gt;姓名&lt;/font&gt;" style="rounded=1;whiteSpace=wrap;html=1;" vertex="1" parent="1">
          <mxGeometry x="1250" y="390" width="85" height="50" as="geometry" />
        </mxCell>
        <mxCell id="_HgupfXg40LZJNDoUt4P-294" value="&lt;font style=&quot;font-size: 23px;&quot;&gt;日期&lt;/font&gt;" style="rounded=1;whiteSpace=wrap;html=1;" vertex="1" parent="1">
          <mxGeometry x="1300" y="460" width="80" height="50" as="geometry" />
        </mxCell>
        <mxCell id="_HgupfXg40LZJNDoUt4P-295" value="&lt;font style=&quot;font-size: 23px;&quot;&gt;終點站&lt;/font&gt;" style="rounded=1;whiteSpace=wrap;html=1;" vertex="1" parent="1">
          <mxGeometry x="1242.5" y="560" width="100" height="50" as="geometry" />
        </mxCell>
        <mxCell id="_HgupfXg40LZJNDoUt4P-296" value="&lt;font style=&quot;font-size: 23px;&quot;&gt;票價&lt;/font&gt;" style="rounded=1;whiteSpace=wrap;html=1;" vertex="1" parent="1">
          <mxGeometry x="1205" y="640" width="90" height="40" as="geometry" />
        </mxCell>
        <mxCell id="_HgupfXg40LZJNDoUt4P-297" value="&lt;font style=&quot;font-size: 23px;&quot;&gt;始發站&lt;/font&gt;" style="rounded=1;whiteSpace=wrap;html=1;" vertex="1" parent="1">
          <mxGeometry x="1200" y="700" width="100" height="50" as="geometry" />
        </mxCell>
        <mxCell id="_HgupfXg40LZJNDoUt4P-298" value="&lt;font style=&quot;font-size: 23px;&quot;&gt;車次&lt;/font&gt;" style="rounded=1;whiteSpace=wrap;html=1;" vertex="1" parent="1">
          <mxGeometry x="1245" y="777" width="100" height="50" as="geometry" />
        </mxCell>
        <mxCell id="_HgupfXg40LZJNDoUt4P-299" value="&lt;font style=&quot;font-size: 23px;&quot;&gt;站點&lt;/font&gt;" style="rounded=1;whiteSpace=wrap;html=1;" vertex="1" parent="1">
          <mxGeometry x="1310" y="840" width="100" height="50" as="geometry" />
        </mxCell>
        <mxCell id="_HgupfXg40LZJNDoUt4P-300" value="&lt;span style=&quot;font-size: 23px;&quot;&gt;日期&lt;/span&gt;" style="rounded=1;whiteSpace=wrap;html=1;" vertex="1" parent="1">
          <mxGeometry x="1310" y="910" width="100" height="50" as="geometry" />
        </mxCell>
        <mxCell id="_HgupfXg40LZJNDoUt4P-301" value="&lt;font style=&quot;font-size: 23px;&quot;&gt;編號&lt;/font&gt;" style="rounded=1;whiteSpace=wrap;html=1;" vertex="1" parent="1">
          <mxGeometry x="1360" y="1060" width="100" height="50" as="geometry" />
        </mxCell>
        <mxCell id="_HgupfXg40LZJNDoUt4P-302" value="&lt;font style=&quot;font-size: 23px;&quot;&gt;姓名&lt;/font&gt;" style="rounded=1;whiteSpace=wrap;html=1;" vertex="1" parent="1">
          <mxGeometry x="1630" y="1060" width="100" height="50" as="geometry" />
        </mxCell>
        <mxCell id="_HgupfXg40LZJNDoUt4P-303" value="&lt;font style=&quot;font-size: 23px;&quot;&gt;車次&lt;/font&gt;" style="rounded=1;whiteSpace=wrap;html=1;" vertex="1" parent="1">
          <mxGeometry x="1630" y="890" width="100" height="50" as="geometry" />
        </mxCell>
        <mxCell id="_HgupfXg40LZJNDoUt4P-304" value="&lt;font style=&quot;font-size: 23px;&quot;&gt;票號&lt;/font&gt;" style="rounded=1;whiteSpace=wrap;html=1;" vertex="1" parent="1">
          <mxGeometry x="1660" y="240" width="90" height="40" as="geometry" />
        </mxCell>
        <mxCell id="_HgupfXg40LZJNDoUt4P-305" value="&lt;font style=&quot;font-size: 23px;&quot;&gt;票號&lt;/font&gt;" style="rounded=1;whiteSpace=wrap;html=1;" vertex="1" parent="1">
          <mxGeometry x="1750" y="540" width="90" height="40" as="geometry" />
        </mxCell>
        <mxCell id="_HgupfXg40LZJNDoUt4P-306" value="&lt;font style=&quot;font-size: 23px;&quot;&gt;票價&lt;/font&gt;" style="rounded=1;whiteSpace=wrap;html=1;" vertex="1" parent="1">
          <mxGeometry x="1750" y="400" width="90" height="40" as="geometry" />
        </mxCell>
        <mxCell id="_HgupfXg40LZJNDoUt4P-307" value="&lt;font style=&quot;font-size: 23px;&quot;&gt;座位號&lt;/font&gt;" style="rounded=1;whiteSpace=wrap;html=1;" vertex="1" parent="1">
          <mxGeometry x="1780" y="605" width="100" height="50" as="geometry" />
        </mxCell>
        <mxCell id="_HgupfXg40LZJNDoUt4P-308" value="&lt;font style=&quot;font-size: 23px;&quot;&gt;車廂號&lt;/font&gt;" style="rounded=1;whiteSpace=wrap;html=1;" vertex="1" parent="1">
          <mxGeometry x="1780" y="670" width="100" height="50" as="geometry" />
        </mxCell>
        <mxCell id="_HgupfXg40LZJNDoUt4P-309" value="&lt;font style=&quot;font-size: 23px;&quot;&gt;票類型&lt;/font&gt;" style="rounded=1;whiteSpace=wrap;html=1;" vertex="1" parent="1">
          <mxGeometry x="1610" y="777" width="100" height="50" as="geometry" />
        </mxCell>
        <mxCell id="_HgupfXg40LZJNDoUt4P-310" value="&lt;font style=&quot;font-size: 23px;&quot;&gt;乘車日期&lt;/font&gt;" style="rounded=1;whiteSpace=wrap;html=1;" vertex="1" parent="1">
          <mxGeometry x="1740" y="760" width="100" height="50" as="geometry" />
        </mxCell>
        <mxCell id="_HgupfXg40LZJNDoUt4P-311" value="&lt;font style=&quot;font-size: 23px;&quot;&gt;應退票&lt;/font&gt;" style="rounded=1;whiteSpace=wrap;html=1;" vertex="1" parent="1">
          <mxGeometry x="1660" y="470" width="90" height="40" as="geometry" />
        </mxCell>
        <mxCell id="_HgupfXg40LZJNDoUt4P-312" value="&lt;font style=&quot;font-size: 23px;&quot;&gt;退票時間&lt;/font&gt;" style="rounded=1;whiteSpace=wrap;html=1;" vertex="1" parent="1">
          <mxGeometry x="1750" y="305" width="100" height="40" as="geometry" />
        </mxCell>
        <mxCell id="_HgupfXg40LZJNDoUt4P-313" value="&lt;font style=&quot;font-size: 23px;&quot;&gt;車票&lt;/font&gt;" style="rounded=0;whiteSpace=wrap;html=1;" vertex="1" parent="1">
          <mxGeometry x="1500" y="575" width="90" height="65" as="geometry" />
        </mxCell>
        <mxCell id="_HgupfXg40LZJNDoUt4P-314" value="&lt;font style=&quot;font-size: 23px;&quot;&gt;售票&lt;/font&gt;" style="rhombus;whiteSpace=wrap;html=1;" vertex="1" parent="1">
          <mxGeometry x="1500" y="827" width="100" height="70" as="geometry" />
        </mxCell>
        <mxCell id="_HgupfXg40LZJNDoUt4P-315" value="&lt;span style=&quot;font-size: 23px;&quot;&gt;n&lt;/span&gt;" style="text;html=1;strokeColor=none;fillColor=none;align=center;verticalAlign=middle;whiteSpace=wrap;rounded=0;" vertex="1" parent="1">
          <mxGeometry x="1460" y="200" width="60" height="30" as="geometry" />
        </mxCell>
        <mxCell id="_HgupfXg40LZJNDoUt4P-316" value="&lt;span style=&quot;font-size: 23px;&quot;&gt;n&lt;/span&gt;" style="text;html=1;strokeColor=none;fillColor=none;align=center;verticalAlign=middle;whiteSpace=wrap;rounded=0;" vertex="1" parent="1">
          <mxGeometry x="1560" y="200" width="60" height="30" as="geometry" />
        </mxCell>
        <mxCell id="_HgupfXg40LZJNDoUt4P-317" value="&lt;span style=&quot;font-size: 23px;&quot;&gt;n&lt;/span&gt;" style="text;html=1;strokeColor=none;fillColor=none;align=center;verticalAlign=middle;whiteSpace=wrap;rounded=0;" vertex="1" parent="1">
          <mxGeometry x="1470" y="530" width="60" height="30" as="geometry" />
        </mxCell>
        <mxCell id="_HgupfXg40LZJNDoUt4P-318" value="&lt;span style=&quot;font-size: 23px;&quot;&gt;n&lt;/span&gt;" style="text;html=1;strokeColor=none;fillColor=none;align=center;verticalAlign=middle;whiteSpace=wrap;rounded=0;" vertex="1" parent="1">
          <mxGeometry x="1560" y="530" width="60" height="30" as="geometry" />
        </mxCell>
        <mxCell id="_HgupfXg40LZJNDoUt4P-319" value="&lt;span style=&quot;font-size: 23px;&quot;&gt;n&lt;/span&gt;" style="text;html=1;strokeColor=none;fillColor=none;align=center;verticalAlign=middle;whiteSpace=wrap;rounded=0;" vertex="1" parent="1">
          <mxGeometry x="1540" y="655" width="60" height="30" as="geometry" />
        </mxCell>
        <mxCell id="_HgupfXg40LZJNDoUt4P-320" value="&lt;span style=&quot;font-size: 23px;&quot;&gt;n&lt;/span&gt;" style="text;html=1;strokeColor=none;fillColor=none;align=center;verticalAlign=middle;whiteSpace=wrap;rounded=0;" vertex="1" parent="1">
          <mxGeometry x="1540" y="1000" width="60" height="30" as="geometry" />
        </mxCell>
        <mxCell id="_HgupfXg40LZJNDoUt4P-321" value="" style="endArrow=none;html=1;rounded=0;" edge="1" parent="1" source="_HgupfXg40LZJNDoUt4P-287" target="_HgupfXg40LZJNDoUt4P-288">
          <mxGeometry width="50" height="50" relative="1" as="geometry">
            <mxPoint x="840" y="450" as="sourcePoint" />
            <mxPoint x="890" y="400" as="targetPoint" />
          </mxGeometry>
        </mxCell>
        <mxCell id="_HgupfXg40LZJNDoUt4P-322" value="" style="endArrow=none;html=1;rounded=0;" edge="1" parent="1" source="_HgupfXg40LZJNDoUt4P-289" target="_HgupfXg40LZJNDoUt4P-288">
          <mxGeometry width="50" height="50" relative="1" as="geometry">
            <mxPoint x="840" y="480" as="sourcePoint" />
            <mxPoint x="890" y="430" as="targetPoint" />
          </mxGeometry>
        </mxCell>
        <mxCell id="_HgupfXg40LZJNDoUt4P-323" value="" style="endArrow=none;html=1;rounded=0;entryX=0.75;entryY=1;entryDx=0;entryDy=0;" edge="1" parent="1" source="_HgupfXg40LZJNDoUt4P-290" target="_HgupfXg40LZJNDoUt4P-288">
          <mxGeometry width="50" height="50" relative="1" as="geometry">
            <mxPoint x="800" y="470" as="sourcePoint" />
            <mxPoint x="850" y="420" as="targetPoint" />
          </mxGeometry>
        </mxCell>
        <mxCell id="_HgupfXg40LZJNDoUt4P-325" value="" style="endArrow=none;html=1;rounded=0;" edge="1" parent="1" source="_HgupfXg40LZJNDoUt4P-289" target="_HgupfXg40LZJNDoUt4P-292">
          <mxGeometry width="50" height="50" relative="1" as="geometry">
            <mxPoint x="990" y="560" as="sourcePoint" />
            <mxPoint x="1040" y="510" as="targetPoint" />
          </mxGeometry>
        </mxCell>
        <mxCell id="_HgupfXg40LZJNDoUt4P-326" value="" style="endArrow=none;html=1;rounded=0;" edge="1" parent="1" source="_HgupfXg40LZJNDoUt4P-289" target="_HgupfXg40LZJNDoUt4P-291">
          <mxGeometry width="50" height="50" relative="1" as="geometry">
            <mxPoint x="820" y="400" as="sourcePoint" />
            <mxPoint x="870" y="350" as="targetPoint" />
          </mxGeometry>
        </mxCell>
        <mxCell id="_HgupfXg40LZJNDoUt4P-327" value="" style="endArrow=none;html=1;rounded=0;" edge="1" parent="1" source="_HgupfXg40LZJNDoUt4P-289" target="_HgupfXg40LZJNDoUt4P-293">
          <mxGeometry width="50" height="50" relative="1" as="geometry">
            <mxPoint x="770" y="610" as="sourcePoint" />
            <mxPoint x="820" y="560" as="targetPoint" />
          </mxGeometry>
        </mxCell>
        <mxCell id="_HgupfXg40LZJNDoUt4P-328" value="" style="endArrow=none;html=1;rounded=0;" edge="1" parent="1" source="_HgupfXg40LZJNDoUt4P-313" target="_HgupfXg40LZJNDoUt4P-297">
          <mxGeometry width="50" height="50" relative="1" as="geometry">
            <mxPoint x="450" y="550" as="sourcePoint" />
            <mxPoint x="500" y="500" as="targetPoint" />
          </mxGeometry>
        </mxCell>
        <mxCell id="_HgupfXg40LZJNDoUt4P-329" value="" style="endArrow=none;html=1;rounded=0;" edge="1" parent="1" source="_HgupfXg40LZJNDoUt4P-313" target="_HgupfXg40LZJNDoUt4P-296">
          <mxGeometry width="50" height="50" relative="1" as="geometry">
            <mxPoint x="460" y="560" as="sourcePoint" />
            <mxPoint x="510" y="510" as="targetPoint" />
          </mxGeometry>
        </mxCell>
        <mxCell id="_HgupfXg40LZJNDoUt4P-330" value="" style="endArrow=none;html=1;rounded=0;" edge="1" parent="1" source="_HgupfXg40LZJNDoUt4P-313" target="_HgupfXg40LZJNDoUt4P-295">
          <mxGeometry width="50" height="50" relative="1" as="geometry">
            <mxPoint x="470" y="570" as="sourcePoint" />
            <mxPoint x="520" y="520" as="targetPoint" />
          </mxGeometry>
        </mxCell>
        <mxCell id="_HgupfXg40LZJNDoUt4P-331" value="" style="endArrow=none;html=1;rounded=0;" edge="1" parent="1" source="_HgupfXg40LZJNDoUt4P-313" target="_HgupfXg40LZJNDoUt4P-290">
          <mxGeometry width="50" height="50" relative="1" as="geometry">
            <mxPoint x="480" y="580" as="sourcePoint" />
            <mxPoint x="530" y="530" as="targetPoint" />
          </mxGeometry>
        </mxCell>
        <mxCell id="_HgupfXg40LZJNDoUt4P-332" value="" style="endArrow=none;html=1;rounded=0;" edge="1" parent="1" source="_HgupfXg40LZJNDoUt4P-313" target="_HgupfXg40LZJNDoUt4P-289">
          <mxGeometry width="50" height="50" relative="1" as="geometry">
            <mxPoint x="490" y="590" as="sourcePoint" />
            <mxPoint x="540" y="540" as="targetPoint" />
          </mxGeometry>
        </mxCell>
        <mxCell id="_HgupfXg40LZJNDoUt4P-333" value="" style="endArrow=none;html=1;rounded=0;" edge="1" parent="1" source="_HgupfXg40LZJNDoUt4P-290" target="_HgupfXg40LZJNDoUt4P-311">
          <mxGeometry width="50" height="50" relative="1" as="geometry">
            <mxPoint x="500" y="600" as="sourcePoint" />
            <mxPoint x="550" y="550" as="targetPoint" />
          </mxGeometry>
        </mxCell>
        <mxCell id="_HgupfXg40LZJNDoUt4P-334" value="" style="endArrow=none;html=1;rounded=0;" edge="1" parent="1" source="_HgupfXg40LZJNDoUt4P-290" target="_HgupfXg40LZJNDoUt4P-306">
          <mxGeometry width="50" height="50" relative="1" as="geometry">
            <mxPoint x="510" y="610" as="sourcePoint" />
            <mxPoint x="560" y="560" as="targetPoint" />
          </mxGeometry>
        </mxCell>
        <mxCell id="_HgupfXg40LZJNDoUt4P-335" value="" style="endArrow=none;html=1;rounded=0;" edge="1" parent="1" source="_HgupfXg40LZJNDoUt4P-290" target="_HgupfXg40LZJNDoUt4P-312">
          <mxGeometry width="50" height="50" relative="1" as="geometry">
            <mxPoint x="520" y="620" as="sourcePoint" />
            <mxPoint x="570" y="570" as="targetPoint" />
          </mxGeometry>
        </mxCell>
        <mxCell id="_HgupfXg40LZJNDoUt4P-336" value="" style="endArrow=none;html=1;rounded=0;" edge="1" parent="1" source="_HgupfXg40LZJNDoUt4P-290" target="_HgupfXg40LZJNDoUt4P-304">
          <mxGeometry width="50" height="50" relative="1" as="geometry">
            <mxPoint x="530" y="630" as="sourcePoint" />
            <mxPoint x="580" y="580" as="targetPoint" />
          </mxGeometry>
        </mxCell>
        <mxCell id="_HgupfXg40LZJNDoUt4P-337" value="" style="endArrow=none;html=1;rounded=0;" edge="1" parent="1" source="_HgupfXg40LZJNDoUt4P-289" target="_HgupfXg40LZJNDoUt4P-294">
          <mxGeometry width="50" height="50" relative="1" as="geometry">
            <mxPoint x="540" y="640" as="sourcePoint" />
            <mxPoint x="590" y="590" as="targetPoint" />
          </mxGeometry>
        </mxCell>
        <mxCell id="_HgupfXg40LZJNDoUt4P-338" value="" style="endArrow=none;html=1;rounded=0;" edge="1" parent="1" source="_HgupfXg40LZJNDoUt4P-313" target="_HgupfXg40LZJNDoUt4P-309">
          <mxGeometry width="50" height="50" relative="1" as="geometry">
            <mxPoint x="560" y="640" as="sourcePoint" />
            <mxPoint x="600" y="600" as="targetPoint" />
          </mxGeometry>
        </mxCell>
        <mxCell id="_HgupfXg40LZJNDoUt4P-339" value="" style="endArrow=none;html=1;rounded=0;" edge="1" parent="1" source="_HgupfXg40LZJNDoUt4P-313" target="_HgupfXg40LZJNDoUt4P-310">
          <mxGeometry width="50" height="50" relative="1" as="geometry">
            <mxPoint x="560" y="660" as="sourcePoint" />
            <mxPoint x="610" y="610" as="targetPoint" />
          </mxGeometry>
        </mxCell>
        <mxCell id="_HgupfXg40LZJNDoUt4P-340" value="" style="endArrow=none;html=1;rounded=0;" edge="1" parent="1" source="_HgupfXg40LZJNDoUt4P-313" target="_HgupfXg40LZJNDoUt4P-308">
          <mxGeometry width="50" height="50" relative="1" as="geometry">
            <mxPoint x="570" y="670" as="sourcePoint" />
            <mxPoint x="620" y="620" as="targetPoint" />
          </mxGeometry>
        </mxCell>
        <mxCell id="_HgupfXg40LZJNDoUt4P-341" value="" style="endArrow=none;html=1;rounded=0;" edge="1" parent="1" source="_HgupfXg40LZJNDoUt4P-313" target="_HgupfXg40LZJNDoUt4P-307">
          <mxGeometry width="50" height="50" relative="1" as="geometry">
            <mxPoint x="580" y="680" as="sourcePoint" />
            <mxPoint x="630" y="630" as="targetPoint" />
          </mxGeometry>
        </mxCell>
        <mxCell id="_HgupfXg40LZJNDoUt4P-342" value="" style="endArrow=none;html=1;rounded=0;" edge="1" parent="1" source="_HgupfXg40LZJNDoUt4P-313" target="_HgupfXg40LZJNDoUt4P-305">
          <mxGeometry width="50" height="50" relative="1" as="geometry">
            <mxPoint x="590" y="690" as="sourcePoint" />
            <mxPoint x="640" y="640" as="targetPoint" />
          </mxGeometry>
        </mxCell>
        <mxCell id="_HgupfXg40LZJNDoUt4P-343" value="" style="endArrow=none;html=1;rounded=0;" edge="1" parent="1" source="_HgupfXg40LZJNDoUt4P-313" target="_HgupfXg40LZJNDoUt4P-298">
          <mxGeometry width="50" height="50" relative="1" as="geometry">
            <mxPoint x="600" y="700" as="sourcePoint" />
            <mxPoint x="650" y="650" as="targetPoint" />
          </mxGeometry>
        </mxCell>
        <mxCell id="_HgupfXg40LZJNDoUt4P-344" value="" style="endArrow=none;html=1;rounded=0;" edge="1" parent="1" source="_HgupfXg40LZJNDoUt4P-300" target="_HgupfXg40LZJNDoUt4P-314">
          <mxGeometry width="50" height="50" relative="1" as="geometry">
            <mxPoint x="610" y="710" as="sourcePoint" />
            <mxPoint x="660" y="660" as="targetPoint" />
          </mxGeometry>
        </mxCell>
        <mxCell id="_HgupfXg40LZJNDoUt4P-345" value="" style="endArrow=none;html=1;rounded=0;" edge="1" parent="1" source="_HgupfXg40LZJNDoUt4P-314" target="_HgupfXg40LZJNDoUt4P-299">
          <mxGeometry width="50" height="50" relative="1" as="geometry">
            <mxPoint x="620" y="720" as="sourcePoint" />
            <mxPoint x="670" y="670" as="targetPoint" />
          </mxGeometry>
        </mxCell>
        <mxCell id="_HgupfXg40LZJNDoUt4P-346" value="" style="endArrow=none;html=1;rounded=0;exitX=1;exitY=1;exitDx=0;exitDy=0;" edge="1" parent="1" source="_HgupfXg40LZJNDoUt4P-314" target="_HgupfXg40LZJNDoUt4P-303">
          <mxGeometry width="50" height="50" relative="1" as="geometry">
            <mxPoint x="630" y="730" as="sourcePoint" />
            <mxPoint x="680" y="680" as="targetPoint" />
          </mxGeometry>
        </mxCell>
        <mxCell id="_HgupfXg40LZJNDoUt4P-347" value="" style="endArrow=none;html=1;rounded=0;" edge="1" parent="1" source="_HgupfXg40LZJNDoUt4P-314" target="_HgupfXg40LZJNDoUt4P-313">
          <mxGeometry width="50" height="50" relative="1" as="geometry">
            <mxPoint x="640" y="740" as="sourcePoint" />
            <mxPoint x="690" y="690" as="targetPoint" />
          </mxGeometry>
        </mxCell>
        <mxCell id="_HgupfXg40LZJNDoUt4P-348" value="&lt;font style=&quot;font-size: 23px;&quot;&gt;售票員&lt;/font&gt;" style="rounded=0;whiteSpace=wrap;html=1;" vertex="1" parent="1">
          <mxGeometry x="1500" y="1045" width="90" height="65" as="geometry" />
        </mxCell>
        <mxCell id="_HgupfXg40LZJNDoUt4P-349" value="" style="endArrow=none;html=1;rounded=0;" edge="1" parent="1" source="_HgupfXg40LZJNDoUt4P-301" target="_HgupfXg40LZJNDoUt4P-348">
          <mxGeometry width="50" height="50" relative="1" as="geometry">
            <mxPoint x="650" y="880" as="sourcePoint" />
            <mxPoint x="700" y="830" as="targetPoint" />
          </mxGeometry>
        </mxCell>
        <mxCell id="_HgupfXg40LZJNDoUt4P-350" value="" style="endArrow=none;html=1;rounded=0;" edge="1" parent="1" source="_HgupfXg40LZJNDoUt4P-348" target="_HgupfXg40LZJNDoUt4P-314">
          <mxGeometry width="50" height="50" relative="1" as="geometry">
            <mxPoint x="660" y="890" as="sourcePoint" />
            <mxPoint x="710" y="840" as="targetPoint" />
          </mxGeometry>
        </mxCell>
        <mxCell id="_HgupfXg40LZJNDoUt4P-351" value="" style="endArrow=none;html=1;rounded=0;" edge="1" parent="1" source="_HgupfXg40LZJNDoUt4P-348" target="_HgupfXg40LZJNDoUt4P-302">
          <mxGeometry width="50" height="50" relative="1" as="geometry">
            <mxPoint x="670" y="900" as="sourcePoint" />
            <mxPoint x="720" y="850" as="targetPoint" />
          </mxGeometry>
        </mxCell>
      </root>
    </mxGraphModel>
  </diagram>
</mxfile>
